# xmcd CD database file
#
# Track frame offsets:
#	187
#	29492
#	71150
#	106502
#	134397
#	153697
#
# Disc length: 2718 seconds
#
# Revision: 4
# Processed by: cddbd v1.5PL3 Copyright (c) Steve Scherf et al.
# Submitted via: CDex 1.50
#
DISCID=4e0a9c06
DTITLE=Toshiko Akiyoshi - Lew Tabackin Big Band - Tales of a Courtesan(Oirantan)
DYEAR=1975
DGENRE=Jazz
TTITLE0=Road Time Shuffle
TTITLE1=Tales of a Courtesan(Oirantan)
TTITLE2=Strive for Jive
TTITLE3=I Ain't Gonna Ask No More
TTITLE4=Interlude
TTITLE5=Village
EXTD=YEAR: 1975
EXTT0=
EXTT1=
EXTT2=
EXTT3=
EXTT4=
EXTT5=
PLAYORDER=
